<svg xmlns="http://www.w3.org/2000/svg" version="1.1" xmlns:xlink="http://www.w3.org/1999/xlink" xmlns:svgjs="http://svgjs.dev/svgjs" width="1500" height="1500" viewBox="0 0 1500 1500"><rect width="1500" height="1500" fill="#ffffff"></rect><g transform="matrix(0.6666666666666666,0,0,0.6666666666666666,249.39393939393938,617.512418457839)"><svg viewBox="0 0 396 105" data-background-color="#000000" preserveAspectRatio="xMidYMid meet" height="397" width="1500" xmlns="http://www.w3.org/2000/svg" xmlns:xlink="http://www.w3.org/1999/xlink"><g id="tight-bounds" transform="matrix(1,0,0,1,0.2400000000000091,0.061194188640712355)"><svg viewBox="0 0 395.52 104.87761162271856" height="104.87761162271856" width="395.52"><g><svg viewBox="0 0 395.52 104.87761162271856" height="104.87761162271856" width="395.52"><g><svg viewBox="0 0 395.52 104.87761162271856" height="104.87761162271856" width="395.52"><g id="textblocktransform"><svg viewBox="0 0 395.52 104.87761162271856" height="104.87761162271856" width="395.52" id="textblock"><g><rect width="395.52" height="82.85327887683471" fill="none" stroke-width="9.018103199999999" stroke="#000000" data-fill-palette-color="none" data-stroke-palette-color="tertiary"></rect><rect width="395.52" height="22.024332745883857" y="82.85327887683471" fill="#000000" data-fill-palette-color="tertiary"></rect></g><g><svg viewBox="0 0 395.52 82.85327887683471" height="82.85327887683471" width="395.52"><g transform="matrix(1,0,0,1,23.607599999999998,23.607599999999998)"><svg width="348.3048" viewBox="1.42 -39.5 459.05 46.97" height="35.63807887683472" data-palette-color="#ffcf31"><path d="M25.15-22.46L19.51 0 10.64 0 1.42-35.16 11.3-35.16 17.14-10.21 22.31-35.16 31.2-35.16 36.87-9.57 43.24-35.16 49.22-35.16 38.99 0 30.1 0 25.15-22.46ZM79.98-28.2L79.98 0 71.73 0 71.73-3.37Q70.26-1.37 68.2-0.4 66.14 0.56 63.67 0.56L63.67 0.56Q60.45 0.56 57.91-0.59 55.37-1.73 53.61-3.72 51.85-5.71 50.93-8.4 50-11.08 50-14.16L50-14.16Q50-17.24 50.93-19.92 51.85-22.61 53.61-24.6 55.37-26.59 57.91-27.73 60.45-28.88 63.67-28.88L63.67-28.88Q65.31-28.88 66.78-28.39 68.26-27.91 69.49-27.01 70.73-26.12 71.66-24.87 72.6-23.61 73.14-22.07L73.14-22.07 76.8-28.2 79.98-28.2ZM71.68-14.16L71.68-14.16Q71.68-15.26 71.57-16.48 71.46-17.7 71.19-18.9 70.92-20.09 70.44-21.18 69.97-22.27 69.22-23.11 68.48-23.95 67.43-24.44 66.38-24.93 64.99-24.93L64.99-24.93Q63.6-24.93 62.57-24.43 61.55-23.93 60.81-23.08 60.08-22.24 59.6-21.14 59.13-20.04 58.86-18.85 58.59-17.65 58.48-16.44 58.37-15.23 58.37-14.16L58.37-14.16Q58.37-13.09 58.48-11.87 58.59-10.64 58.86-9.45 59.13-8.25 59.6-7.15 60.08-6.05 60.81-5.21 61.55-4.37 62.57-3.87 63.6-3.37 64.99-3.37L64.99-3.37Q66.26-3.37 67.25-3.89 68.23-4.42 68.98-5.3 69.72-6.18 70.24-7.3 70.75-8.42 71.07-9.62 71.38-10.82 71.53-12 71.68-13.18 71.68-14.16ZM97.48-24.93L97.48 0 89.2 0 89.2-24.93 84.08-24.93 84.08-28.2 89.2-28.2 89.2-38.57 97.48-38.57 97.48-28.2 106.03-28.2 106.03-24.93 97.48-24.93ZM134.64-21.22L134.64-21.22 131.07-19.8Q130.22-22.49 128.22-23.93 126.21-25.37 123.41-25.37L123.41-25.37Q121.89-25.37 120.71-24.89 119.52-24.41 118.63-23.58 117.74-22.75 117.12-21.66 116.5-20.56 116.11-19.31 115.72-18.07 115.54-16.74 115.37-15.41 115.37-14.16L115.37-14.16Q115.37-12.82 115.52-11.45 115.67-10.08 116.02-8.83 116.37-7.57 116.96-6.48 117.55-5.4 118.44-4.59 119.33-3.78 120.56-3.32 121.79-2.86 123.41-2.86L123.41-2.86Q124.7-2.86 125.87-3.25 127.04-3.64 128.02-4.35 129-5.05 129.75-6.03 130.51-7.01 130.95-8.2L130.95-8.2 134.54-6.88Q133.73-4.96 132.4-3.55 131.07-2.15 129.39-1.23 127.7-0.32 125.77 0.12 123.85 0.56 121.87 0.56L121.87 0.56Q118.67 0.56 115.93-0.52 113.2-1.61 111.21-3.58 109.22-5.54 108.1-8.24 106.97-10.94 106.97-14.16L106.97-14.16Q106.97-17.41 108.09-20.12 109.2-22.83 111.17-24.78 113.15-26.73 115.89-27.81 118.62-28.88 121.87-28.88L121.87-28.88Q123.92-28.88 125.87-28.43 127.82-27.98 129.5-27.04 131.17-26.1 132.5-24.66 133.83-23.22 134.64-21.22ZM168.35-16.16L168.35-16.16Q168.35-13.31 167.65-10.21 166.96-7.1 165.71-4.13 164.47-1.15 162.73 1.48 161 4.1 158.93 6.01L158.93 6.01 155.82 4.32Q156.48 3.1 157.07 1.59 157.66 0.07 158.13-1.62 158.61-3.32 158.99-5.13 159.37-6.93 159.62-8.7 159.88-10.47 160.01-12.15 160.15-13.82 160.15-15.26L160.15-15.26Q160.15-16.21 160.07-17.3 160-18.38 159.77-19.47 159.54-20.56 159.15-21.56 158.75-22.56 158.11-23.32 157.46-24.07 156.55-24.54 155.63-25 154.38-25L154.38-25Q153.16-25 152.21-24.45 151.26-23.9 150.53-23.01 149.79-22.12 149.27-20.97 148.74-19.82 148.42-18.62 148.09-17.41 147.94-16.24 147.79-15.06 147.79-14.14L147.79-14.14 147.79 0 139.52 0 139.52-38.57 147.77-38.57 147.77-24.05Q149.36-26.37 151.66-27.62 153.97-28.88 156.78-28.88L156.78-28.88Q159.71-28.88 161.88-27.93 164.05-26.98 165.49-25.28 166.93-23.58 167.64-21.25 168.35-18.92 168.35-16.16ZM207.8-16.82L207.8-16.82 207.8-16.36Q207.75-14.31 207.37-12.11 206.99-9.91 206.31-7.71 205.63-5.52 204.68-3.37 203.72-1.22 202.54 0.74 201.35 2.71 199.99 4.43 198.62 6.15 197.11 7.47L197.11 7.47 193.47 5.37Q194.32 3.93 195.02 2.23 195.72 0.54 196.28-1.32 196.84-3.17 197.24-5.13 197.64-7.08 197.91-9.01 198.18-10.94 198.32-12.81 198.45-14.67 198.45-16.36L198.45-16.36Q198.45-17.68 198.44-19.35 198.43-21.02 198.24-22.75 198.06-24.49 197.64-26.14 197.23-27.78 196.41-29.08 195.59-30.37 194.31-31.15 193.03-31.93 191.13-31.93L191.13-31.93Q189.44-31.93 188.23-31.36 187.02-30.79 186.18-29.82 185.34-28.86 184.84-27.59 184.34-26.32 184.06-24.91 183.78-23.51 183.69-22.08 183.61-20.65 183.61-19.38L183.61-19.38 183.61-12.57 194.13-12.57 194.13-8.54 183.61-8.54 183.61 0 173.91 0 173.91-17.87Q173.91-21.7 175.13-25 176.35-28.3 178.59-30.73 180.82-33.15 183.96-34.53 187.1-35.91 190.95-35.91L190.95-35.91Q193.57-35.91 195.85-35.17 198.13-34.42 200.01-33.12 201.89-31.81 203.37-30.02 204.85-28.22 205.83-26.1 206.82-23.97 207.34-21.61 207.85-19.24 207.8-16.82ZM237.17-25.71L237.17-25.71 232.53-18.02Q232.24-18.99 231.77-20.21 231.31-21.44 230.62-22.5 229.94-23.56 228.99-24.28 228.04-25 226.79-25L226.79-25Q225.64-25 224.8-24.41 223.96-23.83 223.37-22.89 222.79-21.95 222.41-20.76 222.03-19.58 221.82-18.37 221.62-17.16 221.54-16.05 221.47-14.94 221.47-14.14L221.47-14.14 221.47 0 213.19 0 213.19-28.2 216.37-28.2 219.71-21.63Q220.4-23.22 221.27-24.55 222.15-25.88 223.3-26.84 224.45-27.81 225.9-28.34 227.35-28.88 229.18-28.88L229.18-28.88Q230.14-28.88 231.31-28.72 232.48-28.56 233.6-28.19 234.73-27.81 235.68-27.2 236.63-26.59 237.17-25.71ZM251.23-24.93L251.23 0 242.95 0 242.95-24.93 237.82-24.93 237.82-28.2 242.95-28.2 242.95-38.57 251.23-38.57 251.23-28.2 259.77-28.2 259.77-24.93 251.23-24.93ZM296.07-26.44L296.07-26.44 291.9-24.68Q291.41-26.27 290.59-27.59 289.77-28.91 288.64-29.85 287.5-30.79 286.06-31.31 284.62-31.84 282.91-31.84L282.91-31.84Q281.08-31.84 279.56-31.24 278.03-30.64 276.82-29.59 275.61-28.54 274.71-27.15 273.81-25.76 273.2-24.18 272.59-22.61 272.29-20.92 272-19.24 272-17.63L272-17.63Q272-15.06 272.6-12.52 273.2-9.99 274.5-7.96 275.81-5.93 277.89-4.68 279.96-3.42 282.91-3.42L282.91-3.42Q284.48-3.42 285.87-3.94 287.26-4.47 288.4-5.38 289.53-6.3 290.39-7.54 291.24-8.79 291.75-10.23L291.75-10.23 295.98-8.54Q295.05-6.23 293.44-4.48 291.83-2.73 289.76-1.59 287.7-0.44 285.34 0.13 282.99 0.71 280.6 0.71L280.6 0.71Q278.01 0.71 275.63 0.07 273.25-0.56 271.2-1.73 269.15-2.91 267.47-4.57 265.8-6.23 264.62-8.25 263.43-10.28 262.79-12.66 262.14-15.04 262.14-17.63L262.14-17.63Q262.14-20.21 262.79-22.6 263.43-24.98 264.62-27.01 265.8-29.05 267.47-30.71 269.15-32.37 271.2-33.54 273.25-34.72 275.63-35.35 278.01-35.99 280.6-35.99L280.6-35.99Q283.09-35.99 285.47-35.4 287.85-34.81 289.9-33.63 291.95-32.45 293.55-30.65 295.15-28.86 296.07-26.44ZM309.87-35.01L309.87-35.01Q309.87-34.08 309.51-33.25 309.16-32.42 308.55-31.81 307.94-31.2 307.11-30.85 306.28-30.49 305.35-30.49L305.35-30.49Q304.42-30.49 303.6-30.85 302.79-31.2 302.17-31.81 301.56-32.42 301.21-33.25 300.86-34.08 300.86-35.01L300.86-35.01Q300.86-35.94 301.21-36.76 301.56-37.57 302.17-38.18 302.79-38.79 303.6-39.15 304.42-39.5 305.35-39.5L305.35-39.5Q306.28-39.5 307.11-39.15 307.94-38.79 308.55-38.18 309.16-37.57 309.51-36.76 309.87-35.94 309.87-35.01ZM309.5-28.17L309.5 0 301.22 0 301.22-28.17 309.5-28.17ZM345.24-16.16L345.24-16.16Q345.24-13.31 344.54-10.21 343.85-7.1 342.6-4.13 341.36-1.15 339.62 1.48 337.89 4.1 335.81 6.01L335.81 6.01 332.71 4.32Q333.37 3.1 333.96 1.59 334.55 0.07 335.02-1.62 335.5-3.32 335.88-5.13 336.25-6.93 336.51-8.7 336.77-10.47 336.9-12.15 337.04-13.82 337.04-15.26L337.04-15.26Q337.04-16.21 336.96-17.3 336.89-18.38 336.66-19.47 336.43-20.56 336.03-21.56 335.64-22.56 335-23.32 334.35-24.07 333.43-24.54 332.52-25 331.27-25L331.27-25Q330.05-25 329.1-24.45 328.15-23.9 327.42-23.01 326.68-22.12 326.16-20.97 325.63-19.82 325.3-18.62 324.98-17.41 324.83-16.24 324.68-15.06 324.68-14.14L324.68-14.14 324.68 0 316.41 0 316.41-28.2 319.58-28.2 323.36-21.63Q324.05-23.27 325.07-24.61 326.1-25.95 327.39-26.9 328.69-27.86 330.26-28.37 331.84-28.88 333.67-28.88L333.67-28.88Q336.6-28.88 338.77-27.93 340.94-26.98 342.38-25.28 343.82-23.58 344.53-21.25 345.24-18.92 345.24-16.16ZM357.47-13.38L357.47-13.38Q358.98-13.04 360.49-12.84 362.01-12.65 363.55-12.65L363.55-12.65Q365.16-12.65 366.54-12.95 367.92-13.26 368.93-13.98 369.94-14.7 370.53-15.89 371.12-17.09 371.12-18.87L371.12-18.87Q371.12-20.31 370.72-21.51 370.33-22.71 369.56-23.56 368.8-24.41 367.67-24.89 366.55-25.37 365.06-25.37L365.06-25.37Q363.67-25.37 362.56-24.85 361.45-24.34 360.6-23.47 359.76-22.61 359.16-21.46 358.57-20.31 358.18-19.07 357.79-17.82 357.61-16.55 357.44-15.28 357.44-14.16L357.44-14.16Q357.44-13.96 357.44-13.77 357.44-13.57 357.47-13.38ZM377.8-18.95L377.8-18.95Q377.8-17.21 377.24-15.86 376.68-14.5 375.72-13.48 374.75-12.45 373.48-11.74 372.21-11.04 370.77-10.58 369.33-10.13 367.81-9.94 366.28-9.74 364.84-9.74L364.84-9.74Q363.01-9.74 361.23-10 359.45-10.25 357.71-10.82L357.71-10.82Q357.98-9.2 358.57-7.75 359.15-6.3 360.13-5.21 361.11-4.13 362.53-3.49 363.96-2.86 365.91-2.86L365.91-2.86Q367.21-2.86 368.38-3.25 369.55-3.64 370.53-4.35 371.51-5.05 372.25-6.03 372.99-7.01 373.46-8.2L373.46-8.2 377.02-6.88Q376.22-4.96 374.81-3.55 373.41-2.15 371.64-1.23 369.87-0.32 367.88 0.12 365.89 0.56 363.94 0.56L363.94 0.56Q360.71 0.56 357.98-0.52 355.25-1.61 353.27-3.56 351.29-5.52 350.17-8.23 349.04-10.94 349.04-14.16L349.04-14.16Q349.04-17.38 350.17-20.09 351.29-22.8 353.27-24.76 355.25-26.71 357.98-27.8 360.71-28.88 363.94-28.88L363.94-28.88Q365.5-28.88 367.14-28.66 368.77-28.44 370.31-27.97 371.85-27.49 373.21-26.73 374.58-25.98 375.6-24.87 376.61-23.75 377.21-22.29 377.8-20.83 377.8-18.95ZM426.58-16.46L426.58-16.46Q426.58-13.55 425.9-10.4 425.21-7.25 423.98-4.26 422.75-1.27 421.01 1.39 419.28 4.05 417.16 6.01L417.16 6.01 414.06 4.32Q414.76 3.05 415.35 1.46 415.94-0.12 416.43-1.88 416.91-3.64 417.28-5.49 417.65-7.35 417.9-9.19 418.16-11.04 418.28-12.77 418.4-14.5 418.4-16.02L418.4-16.02Q418.4-16.87 418.35-17.87 418.3-18.87 418.15-19.87 417.99-20.87 417.67-21.79 417.35-22.71 416.8-23.43 416.25-24.15 415.44-24.57 414.62-25 413.47-25L413.47-25Q412.35-25 411.55-24.4 410.76-23.8 410.2-22.85 409.64-21.9 409.31-20.7 408.98-19.51 408.81-18.3 408.64-17.09 408.58-15.99 408.51-14.89 408.51-14.14L408.51-14.14 408.51 0 400.29 0 400.29-13.13Q400.29-13.99 400.31-15.2 400.34-16.41 400.25-17.72 400.17-19.04 399.93-20.35 399.7-21.66 399.2-22.68 398.7-23.71 397.85-24.35 396.99-25 395.7-25L395.7-25Q394.6-25 393.85-24.39 393.11-23.78 392.61-22.81 392.11-21.85 391.83-20.64 391.55-19.43 391.41-18.23 391.28-17.02 391.25-15.93 391.23-14.84 391.23-14.14L391.23-14.14 391.23 0 382.95 0 382.95-28.2 386.13-28.2 389.15-21.63Q390.18-25.05 392.39-26.97 394.6-28.88 398.26-28.88L398.26-28.88Q401.56-28.88 403.73-27.51 405.9-26.15 407.15-23.07L407.15-23.07Q407.86-24.41 408.72-25.49 409.59-26.56 410.65-27.32 411.71-28.08 413.01-28.48 414.3-28.88 415.86-28.88L415.86-28.88Q418.74-28.88 420.78-27.94 422.82-27 424.12-25.34 425.41-23.68 426-21.4 426.58-19.12 426.58-16.46ZM460.47-28.2L460.47 0 452.21 0 452.21-3.37Q450.75-1.37 448.69-0.4 446.62 0.56 444.16 0.56L444.16 0.56Q440.93 0.56 438.4-0.59 435.86-1.73 434.1-3.72 432.34-5.71 431.41-8.4 430.49-11.08 430.49-14.16L430.49-14.16Q430.49-17.24 431.41-19.92 432.34-22.61 434.1-24.6 435.86-26.59 438.4-27.73 440.93-28.88 444.16-28.88L444.16-28.88Q445.79-28.88 447.27-28.39 448.75-27.91 449.98-27.01 451.21-26.12 452.15-24.87 453.09-23.61 453.63-22.07L453.63-22.07 457.29-28.2 460.47-28.2ZM452.16-14.16L452.16-14.16Q452.16-15.26 452.05-16.48 451.95-17.7 451.68-18.9 451.41-20.09 450.93-21.18 450.46-22.27 449.71-23.11 448.97-23.95 447.92-24.44 446.87-24.93 445.48-24.93L445.48-24.93Q444.08-24.93 443.06-24.43 442.03-23.93 441.3-23.08 440.57-22.24 440.09-21.14 439.62-20.04 439.35-18.85 439.08-17.65 438.97-16.44 438.86-15.23 438.86-14.16L438.86-14.16Q438.86-13.09 438.97-11.87 439.08-10.64 439.35-9.45 439.62-8.25 440.09-7.15 440.57-6.05 441.3-5.21 442.03-4.37 443.06-3.87 444.08-3.37 445.48-3.37L445.48-3.37Q446.74-3.37 447.73-3.89 448.72-4.42 449.47-5.3 450.21-6.18 450.72-7.3 451.24-8.42 451.55-9.62 451.87-10.82 452.02-12 452.16-13.18 452.16-14.16Z" opacity="1" transform="matrix(1,0,0,1,0,0)" fill="#000000" class="wordmark-text-0" data-fill-palette-color="primary" id="text-0"></path></svg></g></svg></g></svg></g></svg></g><g></g></svg></g><defs></defs></svg><rect width="395.52" height="104.87761162271856" fill="none" stroke="none" visibility="hidden"></rect></g></svg></g></svg>